<svg id="Layer_1" data-name="Layer 1" xmlns="http://www.w3.org/2000/svg" viewBox="0 0 1920 1080"><defs><style>.cls-1{fill:none;}.cls-11,.cls-12,.cls-13,.cls-2,.cls-3,.cls-4,.cls-5,.cls-6{opacity:0.8;}.cls-2{font-size:41.6px;}.cls-13,.cls-2,.cls-3,.cls-7,.cls-8{fill:#00a19a;}.cls-10,.cls-11,.cls-12,.cls-13,.cls-14,.cls-2,.cls-3,.cls-4,.cls-5,.cls-6,.cls-7,.cls-8,.cls-9{font-family:MyriadPro-Regular, Myriad Pro;}.cls-3{font-size:83.13px;}.cls-4{font-size:77.35px;}.cls-10,.cls-11,.cls-12,.cls-14,.cls-4,.cls-5,.cls-6,.cls-9{fill:#fff;}.cls-5{font-size:88.77px;}.cls-6{font-size:152.21px;}.cls-13,.cls-7{font-size:58.6px;}.cls-8{font-size:146.72px;}.cls-9{font-size:106.63px;}.cls-10{font-size:133.21px;}.cls-11{font-size:57.2px;}.cls-12{font-size:131.61px;}.cls-14{font-size:63.43px;}</style></defs><rect class="cls-1" width="1920" height="1080"/><text class="cls-2" transform="translate(752.24 513.28)">+</text><text class="cls-3" transform="matrix(0.77, 0.64, -0.64, 0.77, 1348.66, 563.13)">+</text><text class="cls-4" transform="translate(1228.38 953.09)">+</text><text class="cls-2" transform="matrix(0.77, 0.64, -0.64, 0.77, 827.83, 692.43)">+</text><text class="cls-5" transform="matrix(-0.25, 0.97, 0.97, 0.25, 231.76, 410.34)">+</text><text class="cls-6" transform="matrix(0.77, 0.64, -0.64, 0.77, 541.02, 867.74)">+</text><text class="cls-7" transform="translate(1002.75 571.68)">+</text><text class="cls-8" transform="matrix(0.7, 0.71, -0.71, 0.7, 1140.63, 390.95)">+</text><text class="cls-9" transform="matrix(0.77, 0.64, -0.64, 0.77, 268.68, 684.41)">+</text><text class="cls-10" transform="matrix(-0.77, 0.64, 0.64, 0.77, 1764.4, 154.8)">+</text><text class="cls-11" transform="matrix(0.77, 0.64, -0.64, 0.77, 198.88, 514.38)">+</text><text class="cls-12" transform="translate(1486.71 847.07)">+</text><text class="cls-13" transform="matrix(0.77, 0.64, -0.64, 0.77, 171.98, 237.58)">+</text><text class="cls-13" transform="translate(914.45 696.94) rotate(25.3)">+</text><text class="cls-14" transform="matrix(0.77, 0.64, -0.64, 0.77, 518.16, 670.26)">+</text><text class="cls-7" transform="translate(1677.03 714.55) rotate(52.27)">+</text></svg>