<svg id="Layer_1" data-name="Layer 1" xmlns="http://www.w3.org/2000/svg" viewBox="0 0 1920 1080"><defs><style>.cls-1,.cls-2,.cls-3,.cls-4{opacity:0.8;}.cls-1{font-size:66.45px;}.cls-1,.cls-12,.cls-15,.cls-16,.cls-3,.cls-6,.cls-7,.cls-8,.cls-9{fill:#fff;}.cls-1,.cls-10,.cls-11,.cls-12,.cls-13,.cls-14,.cls-15,.cls-16,.cls-17,.cls-2,.cls-3,.cls-4,.cls-5,.cls-6,.cls-7,.cls-8,.cls-9{font-family:MyriadPro-Regular, Myriad Pro;}.cls-14,.cls-2{font-size:58.6px;}.cls-10,.cls-11,.cls-13,.cls-14,.cls-17,.cls-2,.cls-4,.cls-5{fill:#00a19a;}.cls-3{font-size:57.2px;}.cls-10,.cls-4,.cls-8{font-size:41.6px;}.cls-5{font-size:109.62px;}.cls-6{font-size:88.77px;}.cls-7{font-size:124.77px;}.cls-9{font-size:83.97px;}.cls-11{font-size:75.84px;}.cls-12{font-size:133.21px;}.cls-13,.cls-15{font-size:80.19px;}.cls-16{font-size:63.43px;}.cls-17{font-size:146.72px;}.cls-18{fill:none;}</style></defs><text class="cls-1" transform="matrix(0.77, 0.64, -0.64, 0.77, 732.37, 384.11)">+</text><text class="cls-2" transform="matrix(0.77, 0.64, -0.64, 0.77, 1658.55, 161.19)">+</text><text class="cls-3" transform="translate(933.81 401.97) rotate(65.35)">+</text><text class="cls-4" transform="matrix(0.77, 0.64, -0.64, 0.77, 644.13, 679.95)">+</text><text class="cls-2" transform="matrix(-0.77, 0.64, 0.64, 0.77, 1217.86, 118.82)">+</text><text class="cls-5" transform="translate(1213.51 794.12)">+</text><text class="cls-6" transform="translate(536.24 856.35) rotate(74.17)">+</text><text class="cls-7" transform="matrix(0.77, 0.64, -0.64, 0.77, 1691.01, 874.61)">+</text><text class="cls-8" transform="translate(1105.71 926.43) rotate(97.36)">+</text><text class="cls-9" transform="matrix(0.77, 0.64, -0.64, 0.77, 1297.72, 531.86)">+</text><text class="cls-10" transform="translate(1614.95 828.95) rotate(119.62)">+</text><text class="cls-11" transform="matrix(0.77, 0.64, -0.64, 0.77, 1134.31, 309.27)">+</text><text class="cls-8" transform="translate(179.04 596.82) rotate(74.17)">+</text><text class="cls-12" transform="matrix(0.77, 0.64, -0.64, 0.77, 1008.91, 228.86)">+</text><text class="cls-13" transform="matrix(0.77, 0.64, -0.64, 0.77, 308.91, 742.07)">+</text><text class="cls-14" transform="translate(367.2 478.55)">+</text><text class="cls-8" transform="translate(758.6 574.74) rotate(99.46)">+</text><text class="cls-14" transform="translate(1027.77 140.21) rotate(65.35)">+</text><text class="cls-15" transform="matrix(-0.75, 0.66, 0.66, 0.75, 559.21, 322.14)">+</text><text class="cls-6" transform="translate(249.43 812.18) rotate(74.17)">+</text><text class="cls-8" transform="translate(818.9 882.26) rotate(97.36)">+</text><text class="cls-16" transform="translate(869.06 635.16) rotate(65.35)">+</text><text class="cls-9" transform="matrix(-0.77, 0.64, 0.64, 0.77, 1578.69, 489.49)">+</text><text class="cls-17" transform="matrix(-0.7, 0.71, 0.71, 0.7, 1632.68, 380.29)">+</text><rect class="cls-18" width="1920" height="1080"/><text class="cls-4" transform="translate(818.9 161.19)">+</text><rect class="cls-18" width="1920" height="1080"/></svg>