<svg id="Layer_1" data-name="Layer 1" xmlns="http://www.w3.org/2000/svg" viewBox="0 0 1920 1080"><defs><style>.cls-1{fill:none;}.cls-11,.cls-12,.cls-2,.cls-3{opacity:0.8;}.cls-2,.cls-9{font-size:106.63px;}.cls-11,.cls-13,.cls-2,.cls-4,.cls-6,.cls-8,.cls-9{fill:#fff;}.cls-10,.cls-11,.cls-12,.cls-13,.cls-14,.cls-2,.cls-3,.cls-4,.cls-5,.cls-6,.cls-7,.cls-8,.cls-9{font-family:MyriadPro-Regular, Myriad Pro;}.cls-10,.cls-3{font-size:112.53px;}.cls-10,.cls-12,.cls-14,.cls-3,.cls-5,.cls-7{fill:#00a19a;}.cls-4,.cls-7{font-size:41.6px;}.cls-5{font-size:146.72px;}.cls-6{font-size:152.21px;}.cls-8{font-size:66.45px;}.cls-11{font-size:124.77px;}.cls-12{font-size:75.84px;}.cls-13{font-size:63.43px;}.cls-14{font-size:58.6px;}</style></defs><rect class="cls-1" width="1920" height="1080"/><text class="cls-2" transform="matrix(0.77, 0.64, -0.64, 0.77, 823.36, 687.39)">+</text><text class="cls-3" transform="translate(326.54 899.93) rotate(-8.72)">+</text><text class="cls-4" transform="matrix(0.77, 0.64, -0.64, 0.77, 1515.7, 241.85)">+</text><text class="cls-5" transform="matrix(0.94, 0.35, -0.35, 0.94, 717.49, 179.13)">+</text><text class="cls-6" transform="matrix(0.77, 0.64, -0.64, 0.77, 1093.11, 873.31)">+</text><text class="cls-7" transform="translate(1556.98 743.99) rotate(25.3)">+</text><text class="cls-8" transform="translate(1514.45 546.01) rotate(65.35)">+</text><text class="cls-9" transform="matrix(-0.75, 0.66, 0.66, 0.75, 374.88, 276.23)">+</text><text class="cls-10" transform="matrix(-0.99, -0.13, -0.13, 0.99, 874.24, 473.68)">+</text><text class="cls-4" transform="matrix(-0.77, 0.64, 0.64, 0.77, 1690.26, 199.48)">+</text><text class="cls-11" transform="matrix(-0.77, 0.64, 0.64, 0.77, 1062.11, 376.83)">+</text><text class="cls-12" transform="matrix(-0.77, 0.64, 0.64, 0.77, 1362.03, 391.78)">+</text><text class="cls-13" transform="translate(775.78 804.2) rotate(65.35)">+</text><text class="cls-14" transform="matrix(-0.42, 0.91, 0.91, 0.42, 1468.56, 222.72)">+</text><text class="cls-13" transform="translate(452.54 376.24) rotate(65.35)">+</text></svg>