<svg id="Layer_1" data-name="Layer 1" xmlns="http://www.w3.org/2000/svg" viewBox="0 0 63.85 61.15"><defs><style>.cls-1{fill:#fff;}</style></defs><path class="cls-1" d="M63.93,53.52s-9-4-17-3.24-15.07,5.5-15.07,5.5S46,39.06,58.51,42.5C58.51,42.5,62.33,46.07,63.93,53.52Z" transform="translate(-0.08 -1.43)"/><path class="cls-1" d="M58.77,42.76s-3.18-4.91-15.05-3.57-22.89,13.4-31.6,13.4S3.71,39.81,3.71,39.81s-8.83,16.13,1,21.31S28.4,56,28.4,56,47.18,38.17,58.77,42.76Z" transform="translate(-0.08 -1.43)"/><path class="cls-1" d="M3.57,39.94a8.69,8.69,0,0,0,7.71,4.49c5.65.09,25.28-9.2,34.28-9.2s13.21,7.53,13.21,7.53-3.16-4.31-13.21-3.46S29.14,45.38,19.81,50.38,3.57,52.69,3.57,39.94Z" transform="translate(-0.08 -1.43)"/><path class="cls-1" d="M48.61,20.36s-3.82-3.11-8.43-2.26S29.05,26.75,28.4,35.24c0,0-12.17,7.94-16.53,9.13s-8.5-3.9-8.5-3.9S17,3.57,27.9,1.56,48.61,20.36,48.61,20.36Z" transform="translate(-0.08 -1.43)"/><path class="cls-1" d="M48.61,20.36C48.4,20,36.29,8.08,29.17,9.38S10.38,44.52,10.38,44.52s4.41,1.25,17.93-7.76c0,0,1.52-14.5,11.85-18.14A10.17,10.17,0,0,1,48.61,20.36Z" transform="translate(-0.08 -1.43)"/></svg>